<?xml version="1.0" encoding="UTF-8"?>
<svg viewBox="0 0 64 64" version="1.1" xmlns="http://www.w3.org/2000/svg" xmlns:xlink="http://www.w3.org/1999/xlink">
    <path
        d="M32.8588776,9.7669592 C34.682449,7.55473471 35.9679184,4.53538776 35.9679184,1.48610204 C35.9679184,1.06757143 35.9380409,0.649040817 35.8782245,0.320204082 C32.8887552,0.439775511 29.3013674,2.29328572 27.1788368,4.8044694 C25.4748368,6.71773471 23.9202858,9.7669592 23.9202858,12.8162449 C23.9202858,13.2945306 24.0099796,13.743 24.0399184,13.892449 C24.2192449,13.9223266 24.5182041,13.9821429 24.8470409,13.9821429 C27.5076735,13.9821429 30.8559184,12.188449 32.8588776,9.7669592 Z M34.9514694,14.6099388 C30.4971429,14.6099388 26.85,17.3303266 24.5182041,17.3303266 C22.0369592,17.3303266 18.8082857,14.7892653 14.922,14.7892653 C7.5379592,14.7892653 0.0642857144,20.8878368 0.0642857144,32.3674286 C0.0642857144,39.5421429 2.81461225,47.1055409 6.25248981,51.9783858 C9.1822041,56.1038634 11.7531429,59.4819797 15.4601021,59.4819797 C19.1072449,59.4819797 20.7215511,57.060496 25.2655715,57.060496 C29.869347,57.060496 30.9156735,59.4221634 34.9514694,59.4221634 C38.9573878,59.4221634 41.6180205,55.7451307 44.1590817,52.1278593 C46.9691633,47.9724858 48.1650001,43.9367144 48.1948776,43.7274491 C47.9557348,43.6676327 40.3026735,40.5287144 40.3026735,31.7695103 C40.3026735,24.1762653 46.3114899,20.7682653 46.6702042,20.4991837 C42.6942246,14.7892653 36.6255919,14.6099388 34.9514694,14.6099388 Z"
        transform="translate(7.816 2)" />
</svg>